<svg width="40" height="40" viewBox="0 0 40 40" fill="none" xmlns="http://www.w3.org/2000/svg">
<path d="M2.6784 30C4.05699 32.3927 7.11426 33.2147 9.50692 31.8361C9.50856 31.8352 9.51012 31.8342 9.51176 31.8333L10.2534 31.4049C11.6534 32.6027 13.2626 33.5316 15 34.1449V35C15 37.7614 17.2386 40 20 40C22.7614 40 25 37.7614 25 35V34.145C26.7377 33.5307 28.347 32.6007 29.7467 31.4016L30.4917 31.8316C32.8849 33.2123 35.9443 32.3916 37.325 29.9983C38.7057 27.6051 37.885 24.5456 35.4917 23.1649L34.7517 22.7383C35.0848 20.9257 35.0848 19.0676 34.7517 17.2549L35.4917 16.8283C37.8849 15.4476 38.7057 12.3882 37.325 9.99492C35.9443 7.60172 32.885 6.78086 30.4917 8.16156L29.75 8.58992C28.3486 7.39359 26.7383 6.46641 25 5.855V5C25 2.23859 22.7614 0 20 0C17.2386 0 15 2.23859 15 5V5.855C13.2624 6.4693 11.6531 7.3993 10.2534 8.59836L9.5084 8.16672C7.11512 6.78594 4.05574 7.6068 2.67504 10C1.29434 12.3932 2.11512 15.4527 4.5084 16.8334L5.2484 17.26C4.91528 19.0726 4.91528 20.9307 5.2484 22.7434L4.5084 23.17C2.12176 24.5544 1.30363 27.6078 2.6784 30ZM20 13.3334C23.6819 13.3334 26.6667 16.3181 26.6667 20C26.6667 23.6819 23.6819 26.6666 20 26.6666C16.3182 26.6666 13.3334 23.6819 13.3334 20C13.3334 16.3181 16.3182 13.3334 20 13.3334Z" fill="white" style="fill:white;fill:white;fill-opacity:1;"/>
</svg>
